<svg id="Слой_1" data-name="Слой 1" xmlns="http://www.w3.org/2000/svg" viewBox="0 0 1208.11 708.09"><defs><style>.cls-1{fill:#3a3a3c;}.cls-2{fill:#1c1c1e;}.cls-3{fill:#007aff;}.cls-4{fill:#66beff;}</style></defs><path class="cls-1" d="M474.25,244s-92.12,30.07-132.12,97.07H242.81S155.87,342.94,146.5,244Z"/><path class="cls-1" d="M825,248S466.13,293.09,438.13,489.09s-91,207-169,219l57-274S330,178,825,248Z"/><path class="cls-2" d="M350.45,328.64H238.63s-60.07-.7-92.5-84.62c0,0,2,92.07,93.39,97l102.6.08Z"/><path class="cls-2" d="M273.1,692.09s132.68-3.16,136.26-168C413.18,348,492.17,259,819,248c0,0-371,45-382.22,255.86C425.86,709,289.88,707.09,270.13,708.09Z"/><path class="cls-3" d="M222.89,464.07S315,434,355,367h99.32s86.94-1.85,96.31,97.07Z"/><path class="cls-4" d="M346.69,379.45H458.5s60.07.7,92.5,84.62c0,0-2-92.07-93.38-97L355,367Z"/><path class="cls-3" d="M2,460s228-45,256-241S349,12,427,0L370,274S323,501,2,460Z"/><path class="cls-4" d="M424,16S303,20,286,184,162,439,0,460c0,0,239.46-51.54,258.23-255.77S407,1,427,0Z"/><path class="cls-3" d="M625.66,355.82h9.84v42.33h14.35v9.39H625.66Z"/><path class="cls-3" d="M660,353.54a5.91,5.91,0,0,1,4.33,1.82,6.09,6.09,0,0,1,1.8,4.43,6,6,0,0,1-1.79,4.38A5.77,5.77,0,0,1,660.1,366a5.87,5.87,0,0,1-4.37-1.85,6.17,6.17,0,0,1-1.8-4.48,6.09,6.09,0,0,1,6.1-6.11Zm-4.8,15.75h9.6v38.25h-9.6Z"/><path class="cls-3" d="M701.81,369.29h9.56v32.76q0,9.7-3.9,14.27-5.24,6.19-15.79,6.19a27.78,27.78,0,0,1-9.45-1.4,17,17,0,0,1-6.47-4.14,16.7,16.7,0,0,1-3.9-6.62h10.58a8.7,8.7,0,0,0,3.62,2.44,15,15,0,0,0,5.24.83,13.74,13.74,0,0,0,6.22-1.2,7.22,7.22,0,0,0,3.32-3.09q1-1.9,1-6.54a15.94,15.94,0,0,1-5.31,3.64,16.83,16.83,0,0,1-6.29,1.11,17.32,17.32,0,0,1-13-5.56,19.52,19.52,0,0,1-5.31-14.06q0-9.1,5.63-14.63a16.79,16.79,0,0,1,12.16-5,16.36,16.36,0,0,1,6.24,1.21,19.81,19.81,0,0,1,5.89,4Zm-9.95,8a10,10,0,0,0-7.49,3,10.5,10.5,0,0,0-3,7.64,10.7,10.7,0,0,0,3,7.84,10.25,10.25,0,0,0,7.6,3.06,9.79,9.79,0,0,0,7.36-3,10.78,10.78,0,0,0,2.9-7.84,10.66,10.66,0,0,0-2.92-7.77A10,10,0,0,0,691.86,377.27Z"/><path class="cls-3" d="M721.11,354.52h9.53v18.63a22,22,0,0,1,5.66-3.64,14.74,14.74,0,0,1,5.76-1.21,13,13,0,0,1,9.6,3.94q3.35,3.4,3.34,10v25.28h-9.46V390.77a41.57,41.57,0,0,0-.63-9,6.26,6.26,0,0,0-2.16-3.52,6.1,6.1,0,0,0-3.78-1.16,7.1,7.1,0,0,0-5,1.93,10.3,10.3,0,0,0-2.9,5.28,43.81,43.81,0,0,0-.42,7.87v15.37h-9.53Z"/><path class="cls-3" d="M765.44,355.19H775v14.1h5.7v8.26H775v30h-9.6v-30h-4.92v-8.26h4.92Z"/><path class="cls-2" d="M802,355.82h28.58v9.7h-9.42v42h-10v-42H802Z"/><path class="cls-2" d="M874.57,391.19H843.74a10.21,10.21,0,0,0,3.56,6.48,11.18,11.18,0,0,0,7.4,2.41,12.79,12.79,0,0,0,9.25-3.76l8.09,3.8a19.05,19.05,0,0,1-7.25,6.34,22.65,22.65,0,0,1-10,2.06q-9,0-14.66-5.68a19.32,19.32,0,0,1-5.66-14.22,20,20,0,0,1,5.65-14.54,19,19,0,0,1,14.15-5.78q9,0,14.69,5.78t5.66,15.28Zm-9.6-7.56a9.57,9.57,0,0,0-3.75-5.2,10.86,10.86,0,0,0-6.5-2,11.5,11.5,0,0,0-7,2.25,12.53,12.53,0,0,0-3.52,5Z"/><path class="cls-2" d="M919.78,377l-8,4.39a11.82,11.82,0,0,0-9.61-4.18,12,12,0,0,0-8.71,3.21,10.94,10.94,0,0,0-3.33,8.23,10.59,10.59,0,0,0,3.2,8,11.62,11.62,0,0,0,8.42,3.09q6.43,0,10-4.39l7.57,5.18q-6.17,8-17.37,8-10.1,0-15.8-6A19.88,19.88,0,0,1,891,371a23.18,23.18,0,0,1,11.13-2.67,22.56,22.56,0,0,1,10.23,2.27A19.41,19.41,0,0,1,919.78,377Z"/><path class="cls-2" d="M928.46,354.52H938v18.63a22,22,0,0,1,5.66-3.64,14.75,14.75,0,0,1,5.77-1.21,13,13,0,0,1,9.59,3.94q3.35,3.4,3.34,10v25.28H952.9V390.77a41.37,41.37,0,0,0-.64-9,6.26,6.26,0,0,0-2.16-3.52,6.1,6.1,0,0,0-3.78-1.16,7.14,7.14,0,0,0-5,1.93,10.3,10.3,0,0,0-2.9,5.28,43.81,43.81,0,0,0-.42,7.87v15.37h-9.53Z"/><path class="cls-2" d="M971.63,369.29h9.6v3.92a22.73,22.73,0,0,1,5.92-3.83,14.2,14.2,0,0,1,5.42-1.08,13.11,13.11,0,0,1,9.65,4q3.35,3.38,3.34,10v25.28h-9.49V390.79q0-6.85-.62-9.1a6.19,6.19,0,0,0-2.14-3.42,5.94,5.94,0,0,0-3.77-1.18,7,7,0,0,0-5,2,10.38,10.38,0,0,0-2.9,5.39,43.52,43.52,0,0,0-.42,7.76v15.35h-9.6Z"/><path class="cls-2" d="M1032.81,368.3A20.18,20.18,0,0,1,1043,371a19.46,19.46,0,0,1,7.44,7.35,19.72,19.72,0,0,1,2.67,10,20.13,20.13,0,0,1-2.69,10.13,19.36,19.36,0,0,1-7.33,7.37,20.31,20.31,0,0,1-10.23,2.65,19.07,19.07,0,0,1-14-5.85,20.14,20.14,0,0,1,14-34.37Zm.15,9a9.84,9.84,0,0,0-7.44,3.11,11,11,0,0,0-3,8,11.27,11.27,0,0,0,2.94,8.09,9.84,9.84,0,0,0,7.45,3.09,10,10,0,0,0,7.5-3.13,12.34,12.34,0,0,0,0-16A9.93,9.93,0,0,0,1033,377.34Z"/><path class="cls-2" d="M1059.88,354.52h9.59v53h-9.59Z"/><path class="cls-2" d="M1096.16,368.3a20.18,20.18,0,0,1,10.17,2.71,19.46,19.46,0,0,1,7.44,7.35,19.72,19.72,0,0,1,2.67,10,20,20,0,0,1-2.69,10.13,19.36,19.36,0,0,1-7.33,7.37,20.31,20.31,0,0,1-10.23,2.65,19.08,19.08,0,0,1-14-5.85,20.14,20.14,0,0,1,14-34.37Zm.16,9a9.84,9.84,0,0,0-7.45,3.11,11,11,0,0,0-3,8,11.27,11.27,0,0,0,2.94,8.09,10.54,10.54,0,0,0,15,0,12.34,12.34,0,0,0,0-16A9.93,9.93,0,0,0,1096.32,377.34Z"/><path class="cls-2" d="M1152.55,369.29h9.56v32.76q0,9.7-3.9,14.27-5.24,6.19-15.79,6.19a27.78,27.78,0,0,1-9.45-1.4,16.57,16.57,0,0,1-10.38-10.76h10.59a8.64,8.64,0,0,0,3.62,2.44,15,15,0,0,0,5.24.83,13.77,13.77,0,0,0,6.22-1.2,7.22,7.22,0,0,0,3.32-3.09q1-1.9,1-6.54a15.94,15.94,0,0,1-5.31,3.64,16.83,16.83,0,0,1-6.29,1.11,17.31,17.31,0,0,1-13-5.56,19.52,19.52,0,0,1-5.31-14.06q0-9.1,5.62-14.63a16.83,16.83,0,0,1,12.17-5,16.36,16.36,0,0,1,6.24,1.21,19.81,19.81,0,0,1,5.89,4Zm-10,8a10,10,0,0,0-7.49,3,10.5,10.5,0,0,0-2.95,7.64,10.7,10.7,0,0,0,3,7.84,10.24,10.24,0,0,0,7.59,3.06,9.8,9.8,0,0,0,7.37-3A10.78,10.78,0,0,0,1153,388a10.66,10.66,0,0,0-2.92-7.77A10,10,0,0,0,1142.6,377.27Z"/><path class="cls-2" d="M1167.57,369.29h9.81l9.93,24,11-24h9.83l-23.95,52.24h-9.92l7.87-16.85Z"/><path class="cls-2" d="M625.73,442.22h9.95v17.83l14-17.83h11.82L643.48,465.3l19.82,28.64H651.62l-15.94-23v23h-9.95Z"/><path class="cls-2" d="M697.49,455.69h9.59v38.25h-9.59v-4.05a18.9,18.9,0,0,1-5.64,3.85,15.72,15.72,0,0,1-6.13,1.18,17,17,0,0,1-12.82-5.75,20.05,20.05,0,0,1-5.4-14.29q0-8.86,5.23-14.52a16.68,16.68,0,0,1,12.71-5.66,16.11,16.11,0,0,1,6.46,1.3,17.7,17.7,0,0,1,5.59,3.9Zm-10.09,7.87a9.7,9.7,0,0,0-7.4,3.15,11.32,11.32,0,0,0-2.94,8.07,11.47,11.47,0,0,0,3,8.15,9.73,9.73,0,0,0,7.38,3.2,9.9,9.9,0,0,0,7.5-3.15,11.5,11.5,0,0,0,3-8.24,11.21,11.21,0,0,0-3-8.09A10,10,0,0,0,687.4,463.56Z"/><path class="cls-2" d="M715.17,455.69h29.28l-17.18,30.12h16.2v8.13H712.53l17.27-30.13H715.17Z"/><path class="cls-2" d="M778.13,455.69h9.6v38.25h-9.6v-4.05a18.75,18.75,0,0,1-5.63,3.85,15.72,15.72,0,0,1-6.13,1.18,17,17,0,0,1-12.82-5.75,20.05,20.05,0,0,1-5.4-14.29q0-8.86,5.23-14.52a16.68,16.68,0,0,1,12.71-5.66,16.11,16.11,0,0,1,6.46,1.3,17.77,17.77,0,0,1,5.58,3.9ZM768,463.56a9.69,9.69,0,0,0-7.39,3.15,11.32,11.32,0,0,0-2.94,8.07,11.47,11.47,0,0,0,3,8.15,9.73,9.73,0,0,0,7.38,3.2,9.9,9.9,0,0,0,7.5-3.15,11.5,11.5,0,0,0,3-8.24,11.21,11.21,0,0,0-3-8.09A10,10,0,0,0,768,463.56Z"/><path class="cls-2" d="M797.5,440.92h9.6v30.54l14.14-15.77h12L816.81,474l18.45,19.92H823.34L807.1,476.31v17.63h-9.6Z"/><path class="cls-2" d="M839.24,440.92h9.52v18.63a22.16,22.16,0,0,1,5.66-3.64,14.75,14.75,0,0,1,5.77-1.21,13,13,0,0,1,9.6,3.94q3.33,3.41,3.34,10v25.28h-9.46V477.17a41.57,41.57,0,0,0-.63-9,6.33,6.33,0,0,0-2.17-3.52,6.1,6.1,0,0,0-3.78-1.16,7.14,7.14,0,0,0-5,1.93,10.3,10.3,0,0,0-2.9,5.28,43.81,43.81,0,0,0-.42,7.87v15.37h-9.52Z"/><path class="cls-2" d="M905.82,461,899.88,467c-2.41-2.39-4.61-3.59-6.57-3.59a4.14,4.14,0,0,0-2.54.69,2,2,0,0,0-.33,3.13,11,11,0,0,0,2.87,1.77l3.51,1.76q5.55,2.75,7.63,5.59a11.66,11.66,0,0,1-1.67,15.19q-3.75,3.4-10,3.41a16,16,0,0,1-13.36-6.54l5.91-6.43a13.68,13.68,0,0,0,4,3.18,8.71,8.71,0,0,0,4,1.21,4.79,4.79,0,0,0,3.06-.91,2.66,2.66,0,0,0,1.16-2.11c0-1.48-1.4-2.92-4.18-4.33l-3.24-1.61q-9.29-4.68-9.28-11.71a10.16,10.16,0,0,1,3.5-7.75,12.67,12.67,0,0,1,9-3.22A15.55,15.55,0,0,1,905.82,461Z"/><path class="cls-2" d="M915.24,441.59h9.6v14.1h5.7V464h-5.7v30h-9.6V464h-4.92v-8.26h4.92Z"/><path class="cls-2" d="M963.9,455.69h9.6v38.25h-9.6v-4.05a18.66,18.66,0,0,1-5.64,3.85,15.63,15.63,0,0,1-6.12,1.18,17,17,0,0,1-12.82-5.75,20,20,0,0,1-5.41-14.29q0-8.86,5.23-14.52a16.7,16.7,0,0,1,12.72-5.66,16.14,16.14,0,0,1,6.46,1.3,17.77,17.77,0,0,1,5.58,3.9Zm-10.09,7.87a9.68,9.68,0,0,0-7.39,3.15,12.54,12.54,0,0,0,.05,16.22,9.71,9.71,0,0,0,7.37,3.2,9.87,9.87,0,0,0,7.5-3.15,11.46,11.46,0,0,0,3-8.24,11.17,11.17,0,0,0-3-8.09A10,10,0,0,0,953.81,463.56Z"/><path class="cls-2" d="M983.2,455.69h9.6v3.92a22.69,22.69,0,0,1,5.91-3.83,14.29,14.29,0,0,1,5.43-1.08,13.15,13.15,0,0,1,9.65,4q3.33,3.38,3.34,10v25.28h-9.5V477.19q0-6.85-.61-9.1a6.19,6.19,0,0,0-2.14-3.42,6,6,0,0,0-3.77-1.18,7.07,7.07,0,0,0-5,1.95,10.44,10.44,0,0,0-2.89,5.39,43.52,43.52,0,0,0-.42,7.76v15.35h-9.6Z"/></svg>