<svg id="Слой_1" data-name="Слой 1" xmlns="http://www.w3.org/2000/svg" viewBox="0 0 1208.73 708.09"><defs><style>.cls-1{fill:#f2f2f7;}.cls-2,.cls-3{fill:#e5e5ea;}.cls-3{font-size:72px;font-family:CenturyGothic-Bold, Century Gothic;font-weight:700;}.cls-4{fill:#007aff;}</style></defs><path class="cls-1" d="M474.25,244s-92.12,30.07-132.12,97.07H242.81S155.87,342.94,146.5,244Z"/><path class="cls-1" d="M825,248S466.13,293.09,438.13,489.09s-91,207-169,219l57-274S330,178,825,248Z"/><path class="cls-2" d="M350.45,328.64H238.63s-60.07-.7-92.5-84.62c0,0,2,92.07,93.39,97l102.6.08Z"/><path class="cls-2" d="M273.1,692.09s132.68-3.16,136.26-168C413.18,348,492.17,259,819,248c0,0-371,45-382.22,255.86C425.86,709,289.88,707.09,270.13,708.09Z"/><path class="cls-1" d="M222.89,464.07S315,434,355,367h99.32s86.94-1.85,96.31,97.07Z"/><path class="cls-2" d="M346.69,379.45H458.5s60.07.7,92.5,84.62c0,0-2-92.07-93.38-97L355,367Z"/><path class="cls-1" d="M2,460s228-45,256-241S349,12,427,0L370,274S323,501,2,460Z"/><path class="cls-2" d="M424,16S303,20,286,184,162,439,0,460c0,0,239.46-51.54,258.23-255.77S407,1,427,0Z"/><text class="cls-3" transform="translate(619.75 407.54)">Light<tspan class="cls-4" x="161.26" y="0"> </tspan><tspan class="cls-1" x="181.41" y="0">Technology</tspan><tspan class="cls-1"><tspan x="0" y="86.4">Kazakhstan</tspan></tspan></text></svg>