<?xml version="1.0" standalone="no"?>
<!DOCTYPE svg PUBLIC "-//W3C//DTD SVG 20010904//EN"
 "http://www.w3.org/TR/2001/REC-SVG-20010904/DTD/svg10.dtd">
<svg version="1.0" xmlns="http://www.w3.org/2000/svg"
 width="4122.000000pt" height="4122.000000pt" viewBox="0 0 4122.000000 4122.000000"
 preserveAspectRatio="xMidYMid meet">
<metadata>
Created by potrace 1.14, written by Peter Selinger 2001-2017
</metadata>
<g transform="translate(0.000000,4122.000000) scale(0.100000,-0.100000)"
fill="#000000" stroke="none">
<path d="M21262 35405 c-281 -37 -642 -119 -941 -216 -1127 -366 -2096 -1038
-2847 -1975 -962 -1199 -1548 -2800 -1759 -4799 -157 -1491 -490 -2847 -995
-4060 -1206 -2893 -3363 -5000 -6421 -6273 -1194 -498 -2587 -875 -4024 -1092
-218 -32 -378 -61 -373 -66 2 -2 141 -19 308 -38 2750 -319 5227 -177 7340
419 2385 672 4359 1938 5778 3703 196 244 495 653 606 830 25 40 29 42 74 42
l48 0 166 248 c199 297 276 402 441 598 628 750 1476 1449 2497 2062 681 408
1536 819 2240 1078 l145 53 -2032 1 c-1906 0 -2033 1 -2033 17 0 16 1955 9427
1966 9466 5 14 -1 17 -38 16 -24 -1 -89 -7 -146 -14z"/>
<path d="M17928 34936 c-219 -153 -515 -401 -648 -542 -25 -26 0 -6 55 45 138
129 324 284 486 405 190 141 195 145 189 145 -3 0 -40 -24 -82 -53z"/>
<path d="M30640 26249 c-4532 -129 -8021 -1161 -10340 -3058 -331 -271 -765
-687 -1022 -978 -641 -726 -1133 -1523 -1459 -2363 l-64 -165 -235 -235 c-361
-361 -708 -657 -1148 -978 -890 -649 -2059 -1270 -3126 -1663 l-131 -48 2002
-1 c1101 0 2004 -3 2006 -7 2 -5 -472 -2292 -1053 -5083 l-1057 -5075 26 -5
c14 -3 107 -2 206 2 1967 82 3588 857 4746 2268 1178 1436 1844 3481 2004
6155 27 454 63 754 131 1095 31 155 109 476 146 600 l14 45 2227 3 c2068 2
2227 3 2227 19 0 45 -204 506 -344 778 -569 1103 -1340 1912 -2251 2364 -322
159 -633 264 -988 333 l-112 22 -2397 3 c-1319 2 -2398 6 -2398 8 0 3 77 120
170 260 l170 255 2113 0 c1321 0 2163 -4 2247 -10 583 -44 1084 -166 1552
-379 l138 -63 137 124 c788 709 1688 1339 2768 1938 2096 1162 4746 2122 7770
2814 886 202 2056 423 2712 512 73 10 131 19 129 21 -5 5 -533 76 -951 128
-1645 206 -3160 323 -4690 365 -407 11 -1476 11 -1875 -1z"/>
<path d="M9897 25913 c-29 -28 34 -497 109 -822 165 -714 462 -1342 876 -1853
122 -151 374 -400 530 -525 135 -108 326 -237 475 -322 184 -104 518 -251 533
-234 4 4 54 71 112 148 777 1040 1336 2163 1677 3375 34 118 61 220 61 227 0
11 -408 13 -2183 13 -1201 0 -2187 -3 -2190 -7z"/>
</g>
</svg>
